# xmcd
#
# Track frame offsets:
#	150
#	16598
#	29780
#	49538
#	69748
#	87938
#	100750
#	116062
#	134975
#	150662
#	165295
#	180120
#	193470
#	210163
#	228648
#	241866
#	254843
#	277491
#	295996
#
# Disc length: 4194 seconds
#
# Revision: 1
# Processed by: cddbd v1.5.1PL0 Copyright (c) Steve Scherf et al.
# Submitted via: audiograbber 1.83.01
#
DISCID=18106013
DTITLE=Various Artist - Compilation  #5
DYEAR=1900
DGENRE=Country
TTITLE0=Brooks and Dunn - My Baby's Everything I Love
TTITLE1=Brooks and Dunn - Good Day To Be Me
TTITLE2=Brooks and Dunn - Good Cowboy
TTITLE3=Brooks and Dunn - Only In America
TTITLE4=Brooks and Dunn - The Last Thing I Do
TTITLE5=Brooks and Dunn - Good Girls Go To Heaven
TTITLE6=Brooks and Dunn - Lucky Me, Lonely You
TTITLE7=Brooks and Dunn - See Jane Dance
TTITLE8=Brooks and Dunn - My Maria
TTITLE9=Brooks and Dunn - Honky Tonk Truth
TTITLE10=Brooks and Dunn - Boot Scootin' Boogie
TTITLE11=Brooks and Dunn - Hard Workin' Man
TTITLE12=Brooks and Dunn - Rock My World (Little Country Girl)
TTITLE13=Brooks and Dunn - Mama Don't Get Dressed Up For Nothing
TTITLE14=Brooks and Dunn - My Next Broken Heart
TTITLE15=Brooks and Dunn - Whiskey Under The Bridge
TTITLE16=Robert Cray - 1040 Blues
TTITLE17=Robert Cray - Foul play
TTITLE18=Robert Cray - Smoking Gun
EXTD=
EXTT0=
EXTT1=
EXTT2=
EXTT3=
EXTT4=
EXTT5=
EXTT6=
EXTT7=
EXTT8=
EXTT9=
EXTT10=
EXTT11=
EXTT12=
EXTT13=
EXTT14=
EXTT15=
EXTT16=
EXTT17=
EXTT18=
PLAYORDER=
